# xmcd
#
# Track frame offsets: 
#        180
#        22260
#        38719
#        59117
#        78308
#        104617
#        117440
#        134189
#        148302
#        166363
#
# Disc length: 2423 seconds
#
# Revision: 0
# Processed by: cddbd v1.5.2PL0 Copyright (c) Steve Scherf et al.
# Submitted via: ExactAudioCopyFreeDBPlugin 1.0
#
DISCID=9f09750a
DTITLE=Flat Broke - Go For Broke
DYEAR=1995
DGENRE=Country
TTITLE0=Good Lovin Man
TTITLE1=Rollin' With The Flow
TTITLE2=In My Soul
TTITLE3=Love At First Sight
TTITLE4=Go For Broke
TTITLE5=Stick To Your Guns
TTITLE6=Good Lovin Man (Edited For Radio)
TTITLE7=In My Soul (Edited For Radio)
TTITLE8=Love At First Sight (Edited For Radio)
TTITLE9=Go For Broke (Edited For Radio)
EXTD=
EXTT0=
EXTT1=
EXTT2=
EXTT3=
EXTT4=
EXTT5=
EXTT6=
EXTT7=
EXTT8=
EXTT9=
PLAYORDER=
